{
  "accessors": [
    {
      "bufferView": 2,
      "componentType": 5126,
      "count": 994,
      "max": [
        0.1819940060377121,
        1.0,
        0.18184199929237366
      ],
      "min": [
        -0.18168899416923523,
        -0.9984710216522217,
        -0.18184199929237366
      ],
      "type": "VEC3"
    },
    {
      "bufferView": 2,
      "byteOffset": 11928,
      "componentType": 5126,
      "count": 994,
      "max": [
        1.0,
        0.9743392467498779,
        1.0
      ],
      "min": [
        -1.0,
        -1.0,
        -1.0
      ],
      "type": "VEC3"
    },
    {
      "bufferView": 3,
      "componentType": 5126,
      "count": 994,
      "max": [
        1.0,
        0.9029240012168884,
        1.0,
        1.0
      ],
      "min": [
        -1.0,
        -1.0,
        -1.0,
        1.0
      ],
      "type": "VEC4"
    },
    {
      "bufferView": 1,
      "componentType": 5126,
      "count": 994,
      "max": [
        0.9928889870643616,
        0.9833909869194031
      ],
      "min": [
        0.016429999843239784,
        0.01762400008738041
      ],
      "type": "VEC2"
    },
    {
      "bufferView": 0,
      "componentType": 5125,
      "count": 4488,
      "type": "SCALAR"
    }
  ],
  "asset": {
    "extras": {
      "author": "inskipp (https://sketchfab.com/inskipp)",
      "license": "CC-BY-4.0 (http://creativecommons.org/licenses/by/4.0/)",
      "source": "https://sketchfab.com/3d-models/greek-column-a22df7d9684345e0b9fffa3b91227f88",
      "title": "Greek column"
    },
    "generator": "Sketchfab-12.68.0",
    "version": "2.0"
  },
  "bufferViews": [
    {
      "buffer": 0,
      "byteLength": 17952,
      "name": "floatBufferViews",
      "target": 34963
    },
    {
      "buffer": 0,
      "byteLength": 7952,
      "byteOffset": 17952,
      "byteStride": 8,
      "name": "floatBufferViews",
      "target": 34962
    },
    {
      "buffer": 0,
      "byteLength": 23856,
      "byteOffset": 25904,
      "byteStride": 12,
      "name": "floatBufferViews",
      "target": 34962
    },
    {
      "buffer": 0,
      "byteLength": 15904,
      "byteOffset": 49760,
      "byteStride": 16,
      "name": "floatBufferViews",
      "target": 34962
    }
  ],
  "buffers": [
    {
      "byteLength": 65664,
      "uri": "scene.bin"
    }
  ],
  "images": [
    {
      "uri": "textures/None_baseColor.jpeg"
    },
    {
      "uri": "textures/None_metallicRoughness.png"
    },
    {
      "uri": "textures/None_normal.png"
    }
  ],
  "materials": [
    {
      "doubleSided": true,
      "name": "None",
      "normalTexture": {
        "index": 2
      },
      "occlusionTexture": {
        "index": 1
      },
      "pbrMetallicRoughness": {
        "baseColorTexture": {
          "index": 0
        },
        "metallicRoughnessTexture": {
          "index": 1
        }
      }
    }
  ],
  "meshes": [
    {
      "name": "defaultMaterial",
      "primitives": [
        {
          "attributes": {
            "NORMAL": 1,
            "POSITION": 0,
            "TANGENT": 2,
            "TEXCOORD_0": 3
          },
          "indices": 4,
          "material": 0,
          "mode": 4
        }
      ]
    }
  ],
  "nodes": [
    {
      "children": [
        1
      ],
      "matrix": [
        0.9145722389221191,
        -8.979985226438976e-17,
        0.4044225811958313,
        0.0,
        0.4044225811958313,
        2.0307583146686329e-16,
        -0.9145722389221191,
        0.0,
        0.0,
        1.0,
        2.220446049250313e-16,
        0.0,
        1.312199492531363e-05,
        -2.5931679024938545e-10,
        -6.195468449732289e-05,
        1.0
      ],
      "name": "Sketchfab_model"
    },
    {
      "children": [
        2
      ],
      "matrix": [
        1.0,
        0.0,
        0.0,
        0.0,
        0.0,
        -4.371139006309477e-08,
        0.999999999999999,
        0.0,
        0.0,
        -0.999999999999999,
        -4.371139006309477e-08,
        0.0,
        0.0,
        0.0,
        0.0,
        1.0
      ],
      "name": "Collada visual scene group"
    },
    {
      "children": [
        3
      ],
      "name": "Cylinder.005_Cylinder.006"
    },
    {
      "mesh": 0,
      "name": "defaultMaterial"
    }
  ],
  "samplers": [
    {
      "magFilter": 9729,
      "minFilter": 9987,
      "wrapS": 10497,
      "wrapT": 10497
    }
  ],
  "scene": 0,
  "scenes": [
    {
      "name": "Sketchfab_Scene",
      "nodes": [
        0
      ]
    }
  ],
  "textures": [
    {
      "sampler": 0,
      "source": 0
    },
    {
      "sampler": 0,
      "source": 1
    },
    {
      "sampler": 0,
      "source": 2
    }
  ]
}
