{
    "asset" : {
        "generator" : "Khronos glTF Blender I/O v1.8.19",
        "version" : "2.0"
    },
    "scene" : 0,
    "scenes" : [
        {
            "name" : "Scene",
            "nodes" : [
                0
            ]
        }
    ],
    "nodes" : [
        {
            "mesh" : 0,
            "name" : "Sphere_n3d",
            "scale" : [
                10,
                10,
                10
            ]
        }
    ],
    "materials" : [
        {
            "doubleSided" : true,
            "name" : "MATERIAL002",
            "normalTexture" : {
                "index" : 0
            },
            "occlusionTexture" : {
                "index" : 1
            },
            "pbrMetallicRoughness" : {
                "baseColorFactor" : [
                    0.4620770514011383,
                    0.6653873324394226,
                    0.6583748459815979,
                    1
                ],
                "metallicFactor" : 0.8823529481887817,
                "roughnessFactor" : 0
            }
        }
    ],
    "meshes" : [
        {
            "name" : "Sphere_n3d",
            "primitives" : [
                {
                    "attributes" : {
                        "POSITION" : 0,
                        "NORMAL" : 1,
                        "TEXCOORD_0" : 2
                    },
                    "indices" : 3,
                    "material" : 0
                }
            ]
        }
    ],
    "textures" : [
        {
            "sampler" : 0,
            "source" : 0
        },
        {
            "sampler" : 0,
            "source" : 1
        }
    ],
    "images" : [
        {
            "bufferView" : 4,
            "mimeType" : "image/png",
            "name" : "MATERIAL002_normal"
        },
        {
            "bufferView" : 5,
            "mimeType" : "image/png",
            "name" : "image"
        }
    ],
    "accessors" : [
        {
            "bufferView" : 0,
            "componentType" : 5126,
            "count" : 1498,
            "max" : [
                0.009999999776482582,
                0.022199999541044235,
                0.009999989531934261
            ],
            "min" : [
                -0.009999989531934261,
                -0.004331009928137064,
                -0.009999989531934261
            ],
            "type" : "VEC3"
        },
        {
            "bufferView" : 1,
            "componentType" : 5126,
            "count" : 1498,
            "type" : "VEC3"
        },
        {
            "bufferView" : 2,
            "componentType" : 5126,
            "count" : 1498,
            "type" : "VEC2"
        },
        {
            "bufferView" : 3,
            "componentType" : 5123,
            "count" : 1632,
            "type" : "SCALAR"
        }
    ],
    "bufferViews" : [
        {
            "buffer" : 0,
            "byteLength" : 17976,
            "byteOffset" : 0
        },
        {
            "buffer" : 0,
            "byteLength" : 17976,
            "byteOffset" : 17976
        },
        {
            "buffer" : 0,
            "byteLength" : 11984,
            "byteOffset" : 35952
        },
        {
            "buffer" : 0,
            "byteLength" : 3264,
            "byteOffset" : 47936
        },
        {
            "buffer" : 0,
            "byteLength" : 62836,
            "byteOffset" : 51200
        },
        {
            "buffer" : 0,
            "byteLength" : 9381,
            "byteOffset" : 114036
        }
    ],
    "samplers" : [
        {
            "magFilter" : 9729,
            "minFilter" : 9987
        }
    ],
    "buffers" : [
        {
            "byteLength" : 123420,
            "uri" : "data:application/octet-stream;base64,"
        }
    ]
}
